<svg xmlns="http://www.w3.org/2000/svg" xmlns:xlink="http://www.w3.org/1999/xlink" width="280" height="165" fill="none"><style>.M{opacity:.5}.N{opacity:.222}.O{opacity:.111}.P{opacity:.333}.Q{opacity:.444}.R{fill:#dde6ee}.S{opacity:.556}.T{opacity:.667}.U{opacity:.778}.V{opacity:.889}.W{fill:#e8eef4}.X{fill-rule:evenodd}</style><path opacity=".3" d="M47.2 109.4c-55.5 0-12.8 42 38.6 42 94 0 82.1 11.1 128 11.1 59.7 0 59.4-77.9 4-77.9-104.3 0-90.1 24.8-170.6 24.8z" fill="url(#A)"/><path d="M56.2 66.7c-1.1 0-1.9-.9-1.9-1.9v-60c0-1.1.9-1.9 1.9-1.9h80.3c1.1 0 1.9.9 1.9 1.9v59.9c0 1.1-.9 1.9-1.9 1.9 0 .1-80.3.1-80.3.1z" fill="url(#B)"/><path d="M136.5 3.3a1.54 1.54 0 011.5 1.5v59.9a1.54 1.54 0 01-1.5 1.5H56.2a1.54 1.54 0 01-1.5-1.5V4.8a1.54 1.54 0 011.5-1.5h80.3zm0-.9H56.2c-1.3 0-2.4 1.1-2.4 2.4v59.9c0 1.3 1.1 2.4 2.4 2.4h80.3c1.3 0 2.4-1.1 2.4-2.4V4.8c0-1.3-1.1-2.4-2.4-2.4z" class="W"/><path d="M138 3.4H55v3.8h83V3.4z" fill="#edf2f7"/><path d="M101.7 32.3H90.9c-.7 0-1.2-.5-1.2-1.2V18.6c0-.7.5-1.2 1.2-1.2h10.8c.7 0 1.2.5 1.2 1.2v12.6c0 .6-.5 1.1-1.2 1.1z" fill="url(#C)"/><g class="R"><g class="M X"><path d="M92.7 28.2l2.4-3.2.9 1.1 1.8-2.1 3.5 4.2h-8.6z" class="O"/><path d="M92.801 28.2l2.3-3.1.9 1.1 1.8-2.2 3.4 4.2h-8.4z" class="N"/><path d="M92.9 28.1l2.2-3 .9 1.2 1.8-2.2 3.3 4h-8.2z" class="P"/><path d="M93.001 28.1l2.1-2.9.9 1.1 1.8-2.1 3.2 3.9h-8z" class="Q"/><path d="M93.101 28l2-2.7.9 1.1 1.8-2.1 3 3.7h-7.7z" class="S"/><path d="M93.301 27.9l1.8-2.5.9 1.1 1.8-2.1 2.9 3.5h-7.4z" class="T"/><path d="M93.4 27.9l1.7-2.4.9 1.1 1.8-2.1 2.8 3.4h-7.2z" class="U"/><path d="M93.501 27.8l1.6-2.2.9 1.1 1.8-2.1 2.7 3.2h-7z" class="V"/><path d="M93.601 27.8l1.5-2.1.9 1.1 1.8-2.2 2.6 3.2h-6.8z" class="M"/></g><g class="M"><g class="X"><path d="M95.1 25a1.58 1.58 0 01-1.6-1.6 1.6 1.6 0 113.2 0c.1.8-.6 1.6-1.6 1.6z" class="N"/><path opacity=".309" d="M95.1 21.7a1.58 1.58 0 011.6 1.6 1.6 1.6 0 11-3.2 0c0-.9.8-1.6 1.6-1.6z"/><path opacity=".395" d="M95.1 21.8a1.54 1.54 0 011.5 1.5 1.54 1.54 0 01-1.5 1.5 1.54 1.54 0 01-1.5-1.5 1.54 1.54 0 011.5-1.5z"/><use xlink:href="#a" opacity=".482"/><use xlink:href="#a" opacity=".568"/><path opacity=".654" d="M95.1 22c.7 0 1.3.6 1.3 1.3s-.6 1.3-1.3 1.3-1.3-.6-1.3-1.3.6-1.3 1.3-1.3z"/><path opacity=".741" d="M95.1 22.1c.7 0 1.2.6 1.2 1.2s-.6 1.2-1.2 1.2-1.2-.6-1.2-1.2.6-1.2 1.2-1.2z"/><path opacity=".827" d="M95.1 22.1c.7 0 1.2.5 1.2 1.2s-.5 1.2-1.2 1.2S94 24 94 23.3c0-.6.5-1.2 1.1-1.2z"/><path opacity=".914" d="M95.1 22.2a1.11 1.11 0 011.1 1.1 1.11 1.11 0 01-1.1 1.1 1.11 1.11 0 01-1.1-1.1 1.11 1.11 0 011.1-1.1z"/></g><path d="M95.1 24.3a1 1 0 100-2 1 1 0 100 2z" class="M"/></g></g><g fill="#fff"><path d="M93.3 27.5l1.5-2.1.9 1.1 1.8-2.2 2.6 3.2h-6.8z" class="X"/><path d="M94.8 24a1 1 0 100-2 1 1 0 100 2z"/></g><path d="M75.4 17.4H67c-.7 0-1.2.5-1.2 1.2v12.6c0 .7.5 1.2 1.2 1.2h10.8c.7 0 1.2-.5 1.2-1.2V21l-3.6-3.6z" fill="url(#D)"/><path d="M75.999 21h3l-3.6-3.6v3a.65.65 0 00.6.6z" fill="url(#E)"/><g class="M R"><path d="M68.3 26.3v-1.4l3.7-1.5v2l-.7.3.7.3v2l-3.7-1.7z" class="O"/><path d="M68.4 26.2v-1.3l3.6-1.5v1.8l-.8.3.8.3v1.8l-3.6-1.4z" class="N"/><path d="M68.4 26.2V25l3.5-1.4v1.7l-.9.3.9.3v1.7l-3.5-1.4z" class="P"/><path d="M68.5 26.1V25l3.3-1.4v1.6l-1 .4 1 .4v1.6l-3.3-1.5z" class="Q"/><path d="M68.601 26.1V25l3.2-1.3v1.4l-1.1.4 1.1.4v1.4l-3.2-1.2z" class="S"/><path d="M68.601 26v-1l3.1-1.3V25l-1.3.5 1.3.5v1.3l-3.1-1.3z" class="T"/><path d="M68.7 26v-.9l2.9-1.2V25l-1.4.5 1.4.5v1.1L68.7 26z" class="U"/><path d="M68.8 26v-.8l2.8-1.2v1l-1.5.6 1.5.6v1L68.8 26z" class="V"/><path d="M71.5 27l-2.7-1.1v-.7l2.7-1.1v.8l-1.6.6 1.6.6v.9z" class="M"/><path d="M72.499 23.3h1.6l-1.1 4.6h-1.6l1.1-4.6z" class="O"/><path d="M72.5 23.3H74l-1.1 4.5h-1.4l1-4.5z" class="N"/><path d="M72.6 23.4h1.3l-1.1 4.3h-1.3l1.1-4.3z" class="P"/><path d="M72.6 23.5h1.2l-1 4.2h-1.2l1-4.2z" class="Q"/><path d="M72.7 23.5h1l-1 4.1h-1l1-4.1z" class="S"/><path d="M72.7 23.6h.9l-1 3.9h-.9l1-3.9z" class="T"/><path d="M72.799 23.7h.8l-.9 3.8h-.8l.9-3.8z" class="U"/><path d="M72.799 23.7h.6l-.9 3.7h-.6l.9-3.7z" class="V"/><path d="M72.9 23.8h.5l-.9 3.5H72l.9-3.5z" class="M"/><path d="M73.399 25.8l.7-.3-.7-.3v-2l3.7 1.5v1.4l-3.7 1.5v-1.8z" class="O"/><path d="M73.399 25.9l.8-.3-.8-.3v-1.8l3.6 1.5v1.3l-3.6 1.5v-1.9z" class="N"/><path d="M73.5 25.9l.9-.3-.9-.3v-1.7L77 25v1.2l-3.5 1.4v-1.7z" class="P"/><path d="M73.6 26l1-.4-1-.4v-1.6l3.3 1.4v1.1l-3.3 1.4V26z" class="Q"/><path d="M73.6 26l1.1-.4-1.1-.4v-1.4l3.2 1.3v1.1l-3.2 1.3V26z" class="S"/><path d="M73.7 26.1l1.3-.5-1.3-.5v-1.3l3.1 1.3v1l-3.1 1.3v-1.3z" class="T"/><path d="M73.8 26.1l1.4-.5-1.4-.6v-1.1l2.9 1.2v.9l-2.9 1.2v-1.1z" class="U"/><path d="M73.8 26.1l1.5-.6-1.5-.5v-1l2.8 1.2v.8l-2.8 1.2v-1.1z" class="V"/><path d="M73.899 26.2l1.6-.6-1.6-.6v-.8l2.7 1.1v.7l-2.7 1v-.8z" class="M"/></g><path d="M71.2 26.7l-2.7-1.1v-.7l2.7-1.1v.8l-1.6.6 1.6.6v.9zm1.4-3.2h.5l-.9 3.5h-.5l.9-3.5zm1 2.4l1.6-.6-1.6-.6v-.8l2.7 1.1v.7l-2.7 1.1v-.9zm48.9-8.5h-7.9c-.7 0-1.2.5-1.2 1.2v12.6c0 .7.5 1.2 1.2 1.2h10.8c.7 0 1.2-.5 1.2-1.2v-9.7c0-.3-.1-.6-.4-.8l-2.9-2.9c-.1-.3-.4-.4-.8-.4z" fill="#fff"/><path d="M122.5 18.3c.1 0 .2 0 .2.1l2.9 2.9c.1.1.1.1.1.2v9.7c0 .2-.1.3-.3.3h-10.8c-.2 0-.3-.1-.3-.3V18.6c0-.2.1-.3.3-.3h7.9zm0-.9h-7.9c-.7 0-1.2.5-1.2 1.2v12.6c0 .7.5 1.2 1.2 1.2h10.8c.7 0 1.2-.5 1.2-1.2v-9.7c0-.3-.1-.6-.4-.8l-2.9-2.9c-.1-.3-.4-.4-.8-.4z" fill="url(#F)"/><path opacity=".7" d="M138.8 17.4V67H75.5V17.4h63.3z" fill="url(#G)"/><path d="M75.5 42h-8.3c-.7 0-1.2.5-1.2 1.2v12.5c0 .7.5 1.2 1.2 1.2h10.7c.7 0 1.2-.5 1.2-1.2V45.5L75.5 42z" fill="url(#H)"/><path d="M76.1 45.6h3L75.5 42v3a.65.65 0 00.6.6z" fill="url(#I)"/><g class="M"><g class="M R"><path opacity=".056" d="M72.8 47.4l.5.1v2.9h2.9v.5c0 1.9-1.6 3.5-3.5 3.5s-3.5-1.6-3.5-3.5c.1-2 1.7-3.5 3.6-3.5z"/><path d="M72.8 47.4l.5.1v2.9h2.9l.1.5c0 1.9-1.6 3.4-3.5 3.4s-3.4-1.6-3.4-3.5a3.44 3.44 0 013.4-3.4z" class="O"/><path opacity=".167" d="M72.8 47.5l.4.2v2.8H76l.2.4c0 1.9-1.5 3.4-3.4 3.3-1.9 0-3.4-1.5-3.3-3.4-.1-1.8 1.5-3.3 3.3-3.3z"/><path d="M72.8 47.6l.3.2v2.8h2.8l.2.3a3.33 3.33 0 01-3.3 3.3 3.33 3.33 0 01-3.3-3.3c0-1.9 1.5-3.3 3.3-3.3z" class="N"/><path opacity=".278" d="M72.801 47.6l.3.3v2.7h2.7l.3.3c0 1.8-1.5 3.2-3.3 3.2s-3.2-1.5-3.2-3.3c0-1.7 1.4-3.2 3.2-3.2z"/><path d="M72.801 47.7l.2.3v2.7h2.7l.3.2c0 1.8-1.4 3.2-3.2 3.2s-3.2-1.4-3.2-3.2 1.5-3.2 3.2-3.2z" class="P"/><path opacity=".389" d="M72.8 47.8l.1.4v2.6h2.6l.4.1a3.12 3.12 0 01-3.1 3.1 3.12 3.12 0 01-3.1-3.1 3.05 3.05 0 013.1-3.1z"/><path d="M72.8 47.8l.1.4v2.6h2.6l.4.1c0 1.7-1.4 3-3.1 3s-3-1.4-3-3.1a3.01 3.01 0 013-3z" class="Q"/><path d="M72.8 50.9h3a3.08 3.08 0 01-3 3 3.08 3.08 0 01-3-3 3.08 3.08 0 013-3v3z" class="M"/></g><g class="M"><path opacity=".056" d="M72.899 46.8h.6c.5 0 .9.1 1.3.3s.8.4 1.1.8c.3.3.6.7.7 1.1a3.08 3.08 0 01.3 1.3v.6h-4v-4.1z" fill="#fbfcfd"/><path d="M72.999 46.8h.5a3.08 3.08 0 011.3.3c.4.2.8.4 1.1.7s.6.7.7 1.1c.2.4.3.8.3 1.3v.5h-4v-2l.1-1.9z" fill="#f7f9fb" class="O"/><path opacity=".167" d="M72.999 46.9h.5c.4 0 .8.1 1.2.3s.8.4 1.1.7.5.7.7 1.1.2.8.2 1.2v.5h-3.8v-1.9l.1-1.9z" fill="#f4f7f9"/><path d="M73.1 47h.5c.4 0 .8.1 1.1.3.4.2.7.4 1 .7s.5.7.7 1.1c.1.4.2.7.2 1.1v.5H73v-1.8l.1-1.9z" fill="#f0f4f7" class="N"/><path opacity=".278" d="M73.2 47h.5c.4 0 .7.1 1.1.3s.7.4 1 .7.5.6.7 1c.1.3.2.7.2 1.1v.5h-3.6v-1.8l.1-1.8z" fill="#ecf1f6"/><path d="M73.2 47.1h.4c.4 0 .7.1 1 .2.4.2.7.4 1 .7s.5.6.7 1c.1.3.2.6.2 1v.4h-3.4v-1.7l.1-1.6z" class="P W"/><path opacity=".389" d="M73.3 47.2h.4c.3 0 .6.1.9.2a3.59 3.59 0 011 .7c.3.3.5.6.7 1 .1.3.2.6.2.9v.4h-3.2v-3.2z" fill="#e5ecf2"/><path d="M73.4 47.2h.4c.3 0 .6.1.9.2a3.59 3.59 0 011 .7c.3.3.5.6.6 1 .1.3.2.6.2.9v.4h-3.2v-1.6l.1-1.6z" fill="#e1e9f0" class="Q"/><path d="M73.399 47.3v3h3c0-.4-.1-.8-.2-1.2s-.4-.7-.6-1c-.3-.3-.6-.5-.9-.6-.5-.1-.9-.2-1.3-.2z" class="M R"/></g></g><path d="M72.2 47.3a3.01 3.01 0 00-3 3c0 1.7 1.3 3 3 3s3-1.3 3-3h-3v-3zm.6-.6v3h3a3.01 3.01 0 00-3-3z" fill="#fff"/><path opacity=".7" d="M240.099 136.7c0 4.8-41.2 3.9-92.1 3.9s-92.1.9-92.1-3.9 41.2-8.7 92.1-8.7 92.1 3.9 92.1 8.7z" fill="url(#Y)"/><path d="M170.9 125.3a3.12 3.12 0 01-3.1-3.1V64.4a3.12 3.12 0 013.1-3.1h57.8a3.12 3.12 0 013.1 3.1v57.8a3.12 3.12 0 01-3.1 3.1h-57.8z" fill="url(#J)"/><path d="M228.699 61.8c1.5 0 2.6 1.2 2.6 2.6v57.8c0 1.5-1.2 2.6-2.6 2.6h-57.8c-1.5 0-2.6-1.2-2.6-2.6V64.4c0-1.5 1.2-2.6 2.6-2.6h57.8zm0-.9h-57.8c-2 0-3.5 1.6-3.5 3.5v57.8c0 2 1.6 3.5 3.5 3.5h57.8c2 0 3.5-1.6 3.5-3.5V64.4c.1-1.9-1.5-3.5-3.5-3.5z" fill="#d9e3ed"/><path d="M232.3 65.7h-65v-1.2c0-2 1.6-3.6 3.6-3.6h57.7c2 0 3.6 1.6 3.6 3.6l.1 1.2z" class="W"/><path d="M211.1 132.6H88.4c-2 0-3.6-1.6-3.6-3.6V44.3c0-2 1.6-3.6 3.6-3.6H211c2 0 3.6 1.6 3.6 3.6V129c.1 2-1.6 3.6-3.5 3.6z" fill="url(#K)"/><path d="M85.699 128.1V45.2c0-2 1.6-3.6 3.6-3.6h120.8c2 0 3.6 1.6 3.6 3.6v82.9c0 2-1.6 3.6-3.6 3.6h-120.8c-2 0-3.6-1.6-3.6-3.6z" fill="url(#L)"/><path d="M210.799 131.7h-122.1a3.01 3.01 0 01-3-3V54.2h128v74.6c.1 1.6-1.3 2.9-2.9 2.9z" fill="url(#M)"/><path d="M205.8 128H94.2c-2.4 0-4.4-2-4.4-4.4V60.3c0-2.4 2-4.4 4.4-4.4h111.6c2.4 0 4.4 2 4.4 4.4v63.3c0 2.4-2 4.4-4.4 4.4z" fill="#fff"/><path d="M205.799 56h-3v1h3v-1zm-7.1 0h-3v1h3v-1zm-7 0h-3v1h3v-1zm-7.1 0h-3v1h3v-1zm-7.1 0h-3v1h3v-1zm-7 0h-3v1h3v-1zm-7.1 0h-3v1h3v-1zm-7.1 0h-3v1h3v-1zm-7 0h-3v1h3v-1zm-7.1 0h-3v1h3v-1zm-7.1 0h-3v1h3v-1zm-7 0h-3v1h3v-1zm-7.1 0h-3v1h3v-1zm-7.1 0h-3v1h3v-1zm-7 0h-3v1h3v-1zm-7.1 0h-3v1h3v-1zm-7 .2c-.7.2-1.2.6-1.7 1.1-.1.1-.1.2-.2.3l.9.5c.4-.7 1-1.2 1.8-1.4l-.8-.5zm-1.9 5.8h-1v3h1v-3zm0 7.1h-1v3h1v-3zm0 7.1h-1v3h1v-3zm0 7h-1v3h1v-3zm0 7.1h-1v3h1v-3zm0 7.1h-1v3h1v-3zm0 7h-1v3h1v-3zm0 7.1h-1v3h1v-3zm0 7.1h-1v3h1v-3zm.3 6.5l-.9.4c.1.1.1.2.2.4.4.5 1 1 1.6 1.2l.4-.9c-.4.2-.9-.4-1.3-1.1zm8.3 1.9h-3v1h3v-1zm7 0h-3v1h3v-1zm7.1 0h-3v1h3v-1zm7.1 0h-3v1h3v-1zm7 0h-3v1h3v-1zm7.1 0h-3v1h3v-1zm7.1 0h-3v1h3v-1zm7 0h-3v1h3v-1zm7.1 0h-3v1h3v-1zm7.1 0h-3v1h3v-1zm7 0h-3v1h3v-1zm7.1 0h-3v1h3v-1zm7.1 0h-3v1h3v-1zm7 0h-3v1h3v-1zm7.1 0h-3v1h3v-1zm7.1 0h-3v1h3v-1zm3.6-3.3c0 .8-.3 1.5-.8 2.1l.8.7c.6-.6.9-1.4 1-2.3v-.1l-1-.4zm1.1-7h-1v3h1v-3zm0-7.1h-1v3h1v-3zm0-7.1h-1v3h1v-3zm0-7h-1v3h1v-3zm0-7.1h-1v3h1v-3zm0-7.1h-1v3h1v-3zm0-7h-1v3h1v-3zm0-7.1h-1v3h1v-3zm-.1-7.1h-1v3h1v-2.8c.1-.1 0-.1 0-.2zm-4.3-4.1v1c.7 0 1.3.2 1.9.6l.6-.8-.1-.1h-.2l-2.2-.7z" fill="url(#N)"/><path d="M181.3 49.7H92.9a1.79 1.79 0 110-3.6h88.4a1.79 1.79 0 110 3.6z" fill="url(#O)"/><use xlink:href="#b" fill="url(#P)"/><use xlink:href="#b" x="8.101" fill="url(#Q)"/><use xlink:href="#b" x="16" fill="url(#R)"/><path opacity=".7" d="M170.7 120.2h-30.1a3.33 3.33 0 01-3.3-3.3V76.7h28.4l8.4 8.8v31.4c-.1 1.8-1.6 3.3-3.4 3.3z" fill="url(#Z)"/><path d="M159.7 74.9h-23.4a3.33 3.33 0 00-3.3 3.3v35.2a3.33 3.33 0 003.3 3.3h30.1a3.33 3.33 0 003.3-3.3V85l-10-10.1z" fill="url(#S)"/><path d="M161.4 85h8.4l-10-10v8.4c-.1.8.7 1.6 1.6 1.6z" fill="url(#T)"/><path d="M136 52.1l20-.1-10 12.3-10-12.2zm6.1-2.8c0 .9-.1 1.9-.2 2.8h8.5c0-10.1-7.8-18.3-17.6-19.2 5.6 3.4 9.3 9.4 9.3 16.4z" fill="url(#U)"/><path d="M129.2 73.1l-6.6-5.6 1.8-1.8 5.6 6.6-.8.8zm-1.6 2.9l-8.4-2.1-.4 2.5 8.7.6.1-1zm6.3-5.3l-.6-8.7-2.5.4 2.1 8.4 1-.1z" fill="url(#V)"/><path d="M137.899 95.6h2.7c2.2 0 3.8 1.5 3.8 3.6s-1.5 3.6-3.8 3.6h-2.7v-7.2zm2.7 6.1c1.6 0 2.5-1.1 2.5-2.5s-.9-2.5-2.5-2.5h-1.4v5h1.4zm4.6-1.5c0-1.5 1-2.7 2.7-2.7s2.7 1.2 2.7 2.7-1 2.7-2.7 2.7c-1.7.1-2.7-1.2-2.7-2.7zm4.2 0c0-.9-.5-1.7-1.5-1.7s-1.5.8-1.5 1.7.5 1.7 1.5 1.7c.9.1 1.5-.7 1.5-1.7zm5.801-.6c0-.8-.4-1.1-1-1.1s-1.1.3-1.3.7v3.6h-1.1v-5.2h1.1v.7c.3-.4 1-.8 1.8-.8 1.1 0 1.7.6 1.7 1.7v3.7h-1.1l-.1-3.3zm4.999-2.1c1.6 0 2.6 1.2 2.6 2.8v.3h-4c.1.8.7 1.4 1.7 1.4.5 0 1.1-.2 1.5-.6l.5.7c-.5.5-1.3.8-2.1.8-1.6 0-2.7-1.1-2.7-2.7-.2-1.5.9-2.7 2.5-2.7zm-1.5 2.3h2.9c0-.6-.4-1.4-1.5-1.4-.9 0-1.3.8-1.4 1.4zm5.801 1.7c.4 0 .8.3.8.8 0 .4-.3.7-.8.7a.68.68 0 01-.7-.7c-.1-.5.3-.8.7-.8zm-.7-5.9h1.4l-.2 5h-1l-.2-5z" fill="#fff"/><path opacity=".7" d="M223.899 60.9h-9.5v64.9h9.5V60.9z" fill="url(#W)"/><defs><linearGradient id="A" x1="140" y1="89.502" x2="140" y2="160.028" xlink:href="#X"><stop stop-color="#bfd0e9" stop-opacity=".7"/><stop offset="1" stop-color="#859cd6" stop-opacity=".2"/></linearGradient><linearGradient id="B" x1="63.789" y1="73.628" x2="128.968" y2="-4.05" xlink:href="#X"><stop stop-color="#fbfcfd"/><stop offset="1" stop-color="#f1f5fa"/></linearGradient><linearGradient id="C" x1="91.637" y1="19.256" x2="101.933" y2="31.526" xlink:href="#X"><stop stop-color="#f0f4f7"/><stop offset="1" stop-color="#d2dde8"/></linearGradient><linearGradient id="D" x1="65.813" y1="24.858" x2="78.996" y2="24.858" xlink:href="#X"><stop stop-color="#f0f4f7"/><stop offset="1" stop-color="#d2dde8"/></linearGradient><linearGradient id="E" x1="75.692" y1="20.671" x2="77.132" y2="19.231" xlink:href="#X"><stop stop-color="#e2e9ef"/><stop offset="1" stop-color="#e2e9f0"/></linearGradient><linearGradient id="F" x1="113.451" y1="24.858" x2="126.633" y2="24.858" xlink:href="#X"><stop stop-color="#f0f4f7"/><stop offset="1" stop-color="#e7edf3"/></linearGradient><linearGradient id="G" x1="112.367" y1="71.696" x2="101.966" y2="12.708" xlink:href="#X"><stop stop-color="#919fb9" stop-opacity=".3"/><stop offset=".191" stop-color="#95a3bc" stop-opacity=".243"/><stop offset=".392" stop-color="#a2aec4" stop-opacity=".182"/><stop offset=".597" stop-color="#b7c0d1" stop-opacity=".121"/><stop offset=".803" stop-color="#d4dae4" stop-opacity=".059"/><stop offset="1" stop-color="#f7f9fb" stop-opacity="0"/></linearGradient><linearGradient id="H" x1="69.799" y1="43.101" x2="74.937" y2="57.219" xlink:href="#X"><stop stop-color="#f0f4f7"/><stop offset="1" stop-color="#d2dde8"/></linearGradient><linearGradient id="I" x1="75.804" y1="45.308" x2="77.246" y2="43.887" xlink:href="#X"><stop stop-color="#e2e9ef"/><stop offset="1" stop-color="#e2e9f0"/></linearGradient><linearGradient id="J" x1="167.838" y1="93.343" x2="231.83" y2="93.343" xlink:href="#X"><stop stop-color="#fafcfd"/><stop offset="1" stop-color="#f9fbfd"/></linearGradient><linearGradient id="K" x1="149.742" y1="132.622" x2="149.742" y2="40.656" xlink:href="#X"><stop stop-color="#cfdae5"/><stop offset="1" stop-color="#f0f4f7"/></linearGradient><linearGradient id="L" x1="149.741" y1="131.72" x2="149.741" y2="41.557" xlink:href="#X"><stop stop-color="#f7f8fb"/><stop offset="1" stop-color="#e8eef5"/></linearGradient><linearGradient id="M" x1="149.741" y1="131.72" x2="149.741" y2="54.18" xlink:href="#X"><stop stop-color="#fbfcfd"/><stop offset="1" stop-color="#f1f5fa"/></linearGradient><linearGradient id="N" x1="209.324" y1="126.241" x2="90.676" y2="57.739" xlink:href="#X"><stop stop-color="#e3eaf1"/><stop offset="1" stop-color="#d9e2ed"/></linearGradient><linearGradient id="O" x1="91.136" y1="47.869" x2="183.102" y2="47.869" xlink:href="#X"><stop stop-color="#fff"/></linearGradient><linearGradient id="P" x1="189.413" y1="47.418" x2="193.921" y2="47.418" xlink:href="#X"><stop stop-color="#d6e0e8"/><stop offset="1" stop-color="#dde5ed"/></linearGradient><linearGradient id="Q" x1="189.427" y1="47.418" x2="193.936" y2="47.418" xlink:href="#X"><stop stop-color="#d6e0e8"/><stop offset="1" stop-color="#dde5ed"/></linearGradient><linearGradient id="R" x1="189.416" y1="47.418" x2="193.924" y2="47.418" xlink:href="#X"><stop stop-color="#d6e0e8"/><stop offset="1" stop-color="#dde5ed"/></linearGradient><linearGradient id="S" x1="132.663" y1="114.546" x2="166" y2="81.208" xlink:href="#X"><stop stop-color="#09bdf8"/><stop offset="1" stop-color="#1591d4"/></linearGradient><linearGradient id="T" x1="160.213" y1="84.485" x2="164.745" y2="79.953" xlink:href="#X"><stop stop-color="#2651a1"/><stop offset="1" stop-color="#1e3c74"/></linearGradient><linearGradient id="U" x1="144.365" y1="64.305" x2="144.365" y2="32.896" xlink:href="#X"><stop stop-color="#ffcb5d"/><stop offset="1" stop-color="#ffa961"/></linearGradient><linearGradient id="V" x1="119.821" y1="77.458" x2="135.262" y2="62.016" xlink:href="#X"><stop stop-color="#c9d3e6"/><stop offset=".998" stop-color="#edf0f6"/></linearGradient><linearGradient id="W" x1="214.432" y1="93.343" x2="223.901" y2="93.343" xlink:href="#X"><stop stop-color="#919fb9" stop-opacity=".1"/><stop offset=".191" stop-color="#95a3bc" stop-opacity=".081"/><stop offset=".392" stop-color="#a2aec4" stop-opacity=".061"/><stop offset=".597" stop-color="#b7c0d1" stop-opacity=".04"/><stop offset=".803" stop-color="#d4dae4" stop-opacity=".02"/><stop offset="1" stop-color="#f7f9fb" stop-opacity="0"/></linearGradient><linearGradient id="X" gradientUnits="userSpaceOnUse"/><radialGradient id="Y" cx="0" cy="0" r="1" gradientTransform="matrix(85.2949 0 0 8.14901 148.003 134.342)" xlink:href="#X"><stop stop-color="#919fb9" stop-opacity=".6"/><stop offset=".191" stop-color="#95a3bc" stop-opacity=".485"/><stop offset=".392" stop-color="#a2aec4" stop-opacity=".365"/><stop offset=".597" stop-color="#b7c0d1" stop-opacity=".242"/><stop offset=".803" stop-color="#d4dae4" stop-opacity=".118"/><stop offset="1" stop-color="#f7f9fb" stop-opacity="0"/></radialGradient><radialGradient id="Z" cx="0" cy="0" r="1" gradientTransform="matrix(21.3147 0 0 21.6131 158.595 103.199)" xlink:href="#X"><stop stop-color="#3a68a2" stop-opacity=".7"/><stop offset=".042" stop-color="#3a68a0" stop-opacity=".679"/><stop offset=".579" stop-color="#3c6891" stop-opacity=".41"/><stop offset="1" stop-color="#3c688b" stop-opacity=".2"/></radialGradient><path id="a" d="M95.1 21.9c.8 0 1.4.6 1.4 1.4s-.6 1.4-1.4 1.4-1.4-.6-1.4-1.4.7-1.4 1.4-1.4z"/><path id="b" d="M191.699 49.7a2.3 2.3 0 100-4.6 2.3 2.3 0 100 4.6z"/></defs></svg>