<svg xmlns="http://www.w3.org/2000/svg" width="260" height="260" fill="none"><path fill="url(#a)" fill-opacity=".6" d="M115 199s-48 5-78 5c-37 0-46 26 0 26 30 0 63 14 106 14 47 0 51-18 80-18s42-27-15-27h-93z" opacity=".5"/><path fill="url(#b)" d="M224 214c0-7-45-5-101-5-55 0-100-2-100 5s45 11 100 11c56 0 101-5 101-11z" opacity=".2"/><g clip-path="url(#c)"><rect width="190" height="137" x="35" y="48" fill="#F1F3F5" rx="8"/><path fill="#fff" d="M187 66h38v123h-38zM35 48h190v17H35z"/><path fill="#2651A1" d="M44 59v-3a5 5 0 002-1v-1a4 4 0 01-2 2h-1v3l1 1a5 5 0 002-1v-1a4 4 0 01-2 1z"/><path fill="#FF723F" d="M49 57v-4a5 5 0 00-3 1v1a4 4 0 013-1v3a5 5 0 00-3 1v1a4 4 0 013-2z"/><path fill="#09BDF8" d="M43 56v-3a6 6 0 013 2v-1a7 7 0 00-4-1v4a6 6 0 014 2v-1a7 7 0 00-3-2z"/><path fill="#1E3C74" d="M46 55zm0 3v1a6 6 0 000-1z"/><path fill="#FFBC5C" d="M46 54v1a7 7 0 004 2v2a6 6 0 01-4-1v1a7 7 0 004 1h1v-3l-1-1a6 6 0 01-4-2z"/><path fill="#FF4949" d="M47 58a6 6 0 010-1 5 5 0 00-1 1h1zm0-3a6 6 0 010-1 5 5 0 00-1 0l1 1z"/><rect width="12" height="3" x="56" y="55" fill="#E9EBED" rx="1.5"/><rect width="12" height="3" x="70" y="55" fill="#E9EBED" rx="1.5"/><rect width="12" height="3" x="84" y="55" fill="#E9EBED" rx="1.5"/><rect width="12" height="3" x="98" y="55" fill="#E9EBED" rx="1.5"/><rect width="62.8" height="4.1" x="155" y="54" fill="#E9EBED" rx="2.1"/><path fill="#EDF2F7" d="M35 66h152v111H35z"/><rect width="33.2" height="37.7" x="39" y="70" fill="#FBFCFD" rx="1"/><rect width="33.2" height="37.7" x="76" y="70" fill="#FBFCFD" rx="1"/><rect width="64" height="13.6" x="83" y="123" fill="#5179B6" rx="3"/><path fill="#fff" stroke="#EDF2F7" stroke-width=".5" d="M32 176h196v11H32z"/></g><rect width="192" height="139" x="34" y="47" stroke="#EBEEF0" stroke-width="2" rx="9"/><path fill="url(#d)" d="M178 14l2 8a6 6 0 004 4l7 2-7 2a6 6 0 00-4 4l-2 7-2-7a6 6 0 00-4-4l-8-2 8-2a6 6 0 004-4l2-8z"/><path fill="url(#e)" d="M200 126l2 2 2 1-1 2v3l-3-2-2 2v-3l-2-2 3-1 1-2z"/><path fill="url(#f)" d="M211 126l1 2 3 1-2 2v3l-2-2-3 2v-3l-2-2 3-1 2-2z"/><path fill="url(#g)" d="M221 126l1 2 3 1-2 2v3l-2-2-3 2v-3l-1-2 2-1 2-2z"/><path fill="url(#h)" d="M231 126l1 2 3 1-2 2v3l-2-2-3 2 1-3-2-2 2-1 2-2z"/><path fill="url(#i)" d="M241 126l1 2 3 1-2 2v3l-2-2-3 2 1-3-2-2 2-1 2-2z"/><path fill="url(#j)" d="M160 3l1 5a3 3 0 002 2l5 1-5 1a3 3 0 00-2 3l-1 4-1-4a3 3 0 00-3-3l-4-1 4-1a3 3 0 003-2l1-5z"/><path fill="url(#k)" d="M147 28l1 4a3 3 0 002 2h3l-3 1a3 3 0 00-2 2l-1 4-1-4a3 3 0 00-2-2l-4-1h4a3 3 0 002-2l1-4z"/><path fill="url(#l)" d="M217 14l1 3 1 1 3 1-3 1-1 1-1 3-1-3a2 2 0 00-1-1l-3-1 3-1a2 2 0 001-1l1-3z"/><path fill="url(#m)" d="M177 49h48v72h-42c-4 0-6-2-6-5V49z"/><path fill="url(#n)" d="M63 117H35v58h35c2 0 4-2 4-4v-50a4 4 0 00-4-4h-7z"/><path fill="url(#o)" stroke="url(#p)" stroke-width=".9" d="M200 42h33l16 16v46a8 8 0 01-8 8h-41a8 8 0 01-8-8V49a8 8 0 018-7z"/><path fill="url(#q)" d="M237 75h-33l-1 2 1 1h33l2-1-2-2zm0-7h-33l-1 1 1 2h33l2-2-2-1zm0 15h-33l-1 1 1 2h33l2-2-2-1zm0 7h-33l-1 2 1 1h33l2-1-2-2zm-19 8h-14l-1 1 1 1h14l1-1-1-1z" opacity=".4"/><g filter="url(#r)"><path fill="url(#s)" fill-rule="evenodd" d="M232 43v12a4 4 0 004 3h12l1 2a4 4 0 00-1-3l-14-15a4 4 0 00-3-1l1 2z" clip-rule="evenodd"/></g><path fill="url(#t)" d="M175 98v4c-8 1-14 7-15 14 3-4 7-7 13-7a15 15 0 012 0v5l9-8-9-8z"/><path fill="url(#u)" d="M37 98H9a3 3 0 00-4 4v47a3 3 0 004 3h38a3 3 0 004-3v-37l-1-1-12-12a2 2 0 00-1-1z"/><path fill="url(#v)" d="M58 161H14a2 2 0 01-2-2v-53c0-1 0-2 2-2h44l2 2v53l-2 2z"/><path fill="url(#w)" d="M50 125H22l-1 1 1 2h28l1-2-1-1zm0-6H22l-1 1 1 1h28l1-1-1-1zm0 13H22l-1 1 1 1h28l1-1-1-1zm0 6H22l-1 1 1 1h28l1-1-1-1zm-17 6H22l-1 1 1 1h11l2-1-2-1z" opacity=".7"/><path fill="url(#x)" d="M78 169v-3c-6-1-12-6-13-13a13 13 0 0013 7v-5l9 7-9 7z"/><defs><linearGradient id="d" x1="177.8" x2="177.8" y1="41.3" y2="14.5" gradientUnits="userSpaceOnUse"><stop stop-color="#E7EFF6" stop-opacity="0"/><stop offset="1" stop-color="#E4F4FF"/></linearGradient><linearGradient id="j" x1="160" x2="160" y1="19.1" y2="3.2" gradientUnits="userSpaceOnUse"><stop stop-color="#E7EFF6" stop-opacity="0"/><stop offset="1" stop-color="#E4F4FF"/></linearGradient><linearGradient id="k" x1="146.8" x2="146.8" y1="41" y2="27.9" gradientUnits="userSpaceOnUse"><stop stop-color="#E7EFF6" stop-opacity="0"/><stop offset="1" stop-color="#E4F4FF"/></linearGradient><linearGradient id="l" x1="216.9" x2="216.9" y1="24" y2="14.2" gradientUnits="userSpaceOnUse"><stop stop-color="#E7EFF6" stop-opacity="0"/><stop offset="1" stop-color="#E4F4FF"/></linearGradient><linearGradient id="m" x1="194" x2="194" y1="133" y2="48.7" gradientUnits="userSpaceOnUse"><stop stop-color="#364F7F" stop-opacity="0"/><stop offset=".2" stop-color="#364F7F" stop-opacity=".1"/><stop offset="1" stop-color="#364F7F" stop-opacity=".1"/></linearGradient><linearGradient id="n" x1="55.3" x2="55.3" y1="179.4" y2="110.7" gradientUnits="userSpaceOnUse"><stop stop-color="#364F7F" stop-opacity=".1"/><stop offset="1" stop-color="#364F7F" stop-opacity="0"/></linearGradient><linearGradient id="o" x1="219.7" x2="219.7" y1="112.3" y2="41.2" gradientUnits="userSpaceOnUse"><stop stop-color="#09BDF8"/><stop offset="1" stop-color="#1591D4"/></linearGradient><linearGradient id="p" x1="219.7" x2="219.7" y1="41.3" y2="112.4" gradientUnits="userSpaceOnUse"><stop stop-color="#0085C4"/><stop offset="1" stop-color="#09A8DD"/></linearGradient><linearGradient id="q" x1="220.6" x2="220.6" y1="100.5" y2="68.1" gradientUnits="userSpaceOnUse"><stop stop-color="#DDEDF8"/><stop offset="1" stop-color="#F5FBFE" stop-opacity=".2"/></linearGradient><linearGradient id="s" x1="231" x2="249.5" y1="50.4" y2="50.4" gradientUnits="userSpaceOnUse"><stop stop-color="#2651A1"/><stop offset="1" stop-color="#1E3C74"/></linearGradient><linearGradient id="t" x1="172.1" x2="172.1" y1="116.2" y2="98.3" gradientUnits="userSpaceOnUse"><stop stop-color="#FFCB5D"/><stop offset="1" stop-color="#FFA961"/></linearGradient><linearGradient id="u" x1="28.1" x2="28.1" y1="152.4" y2="98.3" gradientUnits="userSpaceOnUse"><stop stop-color="#D9E2EB"/><stop offset="1" stop-color="#F2F7FA"/></linearGradient><linearGradient id="v" x1="35.9" x2="35.9" y1="161.2" y2="104.1" gradientUnits="userSpaceOnUse"><stop stop-color="#C4D4E4"/><stop offset="1" stop-color="#E9F0F5"/></linearGradient><linearGradient id="w" x1="35.7" x2="35.7" y1="146.1" y2="119.3" gradientUnits="userSpaceOnUse"><stop stop-color="#fff"/><stop offset="1" stop-color="#fff" stop-opacity=".2"/></linearGradient><linearGradient id="x" x1="66.6" x2="86.6" y1="153.2" y2="162.9" gradientUnits="userSpaceOnUse"><stop stop-color="#09BDF8"/><stop offset="1" stop-color="#1591D4"/></linearGradient><radialGradient id="a" cx="0" cy="0" r="1" gradientTransform="matrix(141.398 0 0 33.7547 127 218)" gradientUnits="userSpaceOnUse"><stop offset="0" stop-color="#222B3D" stop-opacity=".3"/><stop offset="1" stop-color="#132D5B" stop-opacity="0"/><stop offset="1" stop-color="#132D5B" stop-opacity="0"/></radialGradient><radialGradient id="b" cx="0" cy="0" r="1" gradientTransform="matrix(92.8689 0 0 8.36257 123 218)" gradientUnits="userSpaceOnUse"><stop stop-color="#22478C" stop-opacity=".7"/><stop offset="1" stop-color="#22478C" stop-opacity="0"/></radialGradient><radialGradient id="e" cx="0" cy="0" r="1" gradientTransform="matrix(3.95783 0 0 3.96833 200 130)" gradientUnits="userSpaceOnUse"><stop stop-color="#FF9057"/><stop offset="1" stop-color="#FFCB5D"/></radialGradient><radialGradient id="f" cx="0" cy="0" r="1" gradientTransform="matrix(3.95783 0 0 3.96833 211 130)" gradientUnits="userSpaceOnUse"><stop stop-color="#FF9057"/><stop offset="1" stop-color="#FFCB5D"/></radialGradient><radialGradient id="g" cx="0" cy="0" r="1" gradientTransform="matrix(3.95783 0 0 3.96833 221 130)" gradientUnits="userSpaceOnUse"><stop stop-color="#FF9057"/><stop offset="1" stop-color="#FFCB5D"/></radialGradient><radialGradient id="h" cx="0" cy="0" r="1" gradientTransform="matrix(3.95783 0 0 3.96833 231 130)" gradientUnits="userSpaceOnUse"><stop stop-color="#FF9057"/><stop offset="1" stop-color="#FFCB5D"/></radialGradient><radialGradient id="i" cx="0" cy="0" r="1" gradientTransform="matrix(3.95783 0 0 3.96833 241 130)" gradientUnits="userSpaceOnUse"><stop stop-color="#FF9057"/><stop offset="1" stop-color="#FFCB5D"/></radialGradient><clipPath id="c"><rect width="190" height="137" x="35" y="48" fill="#fff" rx="8"/></clipPath><filter id="r" width="25.7" height="25.6" x="226" y="40" color-interpolation-filters="sRGB" filterUnits="userSpaceOnUse"><feFlood flood-opacity="0" result="BackgroundImageFix"/><feColorMatrix in="SourceAlpha" result="hardAlpha" values="0 0 0 0 0 0 0 0 0 0 0 0 0 0 0 0 0 0 127 0"/><feOffset dx="-2" dy="2"/><feGaussianBlur stdDeviation="1.8"/><feComposite in2="hardAlpha" operator="out"/><feColorMatrix values="0 0 0 0 0.0543056 0 0 0 0 0.510217 0 0 0 0 0.766667 0 0 0 1 0"/><feBlend in2="BackgroundImageFix" result="effect1_dropShadow_398_27656"/><feBlend in="SourceGraphic" in2="effect1_dropShadow_398_27656" result="shape"/></filter></defs></svg>