<?xml version="1.0" encoding="UTF-8" standalone="no"?>
<svg
   fill="none"
   width="270.42361"
   height="158.10001"
   version="1.1"
   id="svg251"
   sodipodi:docname="571fc04297583c576adf58174f7fe014.svg"
   xmlns:inkscape="http://www.inkscape.org/namespaces/inkscape"
   xmlns:sodipodi="http://sodipodi.sourceforge.net/DTD/sodipodi-0.dtd"
   xmlns:xlink="http://www.w3.org/1999/xlink"
   xmlns="http://www.w3.org/2000/svg"
   xmlns:svg="http://www.w3.org/2000/svg">
  <sodipodi:namedview
     id="namedview253"
     pagecolor="#ffffff"
     bordercolor="#666666"
     borderopacity="1.0"
     inkscape:showpageshadow="2"
     inkscape:pageopacity="0.0"
     inkscape:pagecheckerboard="0"
     inkscape:deskcolor="#d1d1d1" />
  <path
     d="m 67.61141,59.8 c -76.0000004,0 -89.5,72.5 -32.5,72.5 50.4,0 56.1,25.8 114.6,25.8 35.4,0 40.7,-17.2 85.5,-17.2 44.5,0 53.7,-48.3 -13,-48.3 -94.4,0 -65.4,-32.8 -154.599,-32.8 z"
     fill="url(#a)"
     opacity="0.3"
     id="path2"
     style="fill:url(#a)" />
  <path
     d="m 50.71041,79.9 a 2.26,2.26 0 0 1 -2.3,-2.3 V 40.4 a 2.26,2.26 0 0 1 2.3,-2.3 h 55.1 a 2.26,2.26 0 0 1 2.3,2.3 v 37.2 a 2.26,2.26 0 0 1 -2.3,2.3 z"
     fill="url(#b)"
     id="path4"
     style="fill:url(#b)" />
  <g
     fill="#e8eef4"
     id="g10"
     transform="translate(-4.7895904,-2.9)">
    <path
       d="m 110.7,41.5 a 1.79,1.79 0 0 1 1.8,1.8 v 37.3 a 1.79,1.79 0 0 1 -1.8,1.8 H 55.5 A 1.79,1.79 0 0 1 53.7,80.6 V 43.3 a 1.79,1.79 0 0 1 1.8,-1.8 z m 0,-1 H 55.5 c -1.5,0 -2.8,1.2 -2.8,2.8 v 37.3 c 0,1.5 1.2,2.8 2.8,2.8 h 55.1 c 1.5,0 2.8,-1.2 2.8,-2.8 V 43.3 c 0.1,-1.6 -1.2,-2.8 -2.7,-2.8 z"
       id="path6" />
    <path
       d="m 113.501,45 h -60.9 v -1.1 a 3.37,3.37 0 0 1 3.4,-3.4 h 54 a 3.37,3.37 0 0 1 3.4,3.4 z"
       id="path8" />
  </g>
  <path
     d="m 148.91041,51.3 c -1.6,0 -2.8,-1.3 -2.8,-2.8 V 3.4 c 0,-1.6 1.3,-2.8 2.8,-2.8 h 65.3 c 1.6,0 2.8,1.3 2.8,2.8 v 45.1 c 0,1.6 -1.3,2.8 -2.8,2.8 z"
     fill="url(#c)"
     id="path12"
     style="fill:url(#c)" />
  <path
     d="m 214.21041,1 a 2.26,2.26 0 0 1 2.3,2.3 v 45.1 a 2.26,2.26 0 0 1 -2.3,2.3 h -65.3 a 2.26,2.26 0 0 1 -2.3,-2.3 v -45 a 2.26,2.26 0 0 1 2.3,-2.3 h 65.3 z m 0,-1 h -65.3 a 3.33,3.33 0 0 0 -3.3,3.3 v 45.1 a 3.33,3.33 0 0 0 3.3,3.3 h 65.3 a 3.33,3.33 0 0 0 3.3,-3.3 v -45 c 0,-1.9 -1.4,-3.4 -3.3,-3.4 z"
     fill="#e8eef4"
     id="path14" />
  <path
     d="m 210.91041,7.7 v 43.5 h -65.3 V 7.7 Z"
     fill="url(#d)"
     opacity="0.7"
     id="path16"
     style="fill:url(#d)" />
  <path
     d="m 239.41041,118.6 c 0,5.3 -45.7,4.3 -102.1,4.3 -56.4,0 -102.1,1 -102.1,-4.3 0,-5.3 45.7,-9.7 102.1,-9.7 56.4,0 102.1,4.3 102.1,9.7 z"
     fill="url(#e)"
     opacity="0.7"
     id="path18"
     style="fill:url(#e)" />
  <path
     d="m 201.61041,103.9 h -131 c -1.7,0 -3,-1.3 -3,-3 v -83 c 0,-1.7 1.3,-3 3,-3 h 131 c 1.7,0 3,1.3 3,3 v 83 a 3.01,3.01 0 0 1 -3,3 z"
     fill="url(#f)"
     id="path20"
     style="fill:url(#f)" />
  <path
     d="m 201.61041,102.9 h -131 c -1.1,0 -2,-0.9 -2,-2 v -83 c 0,-1.1 0.9,-2 2,-2 h 131 c 1.1,0 2,0.9 2,2 v 83 c 0,1.1 -0.9,2 -2,2 z"
     fill="url(#g)"
     id="path22"
     style="fill:url(#g)" />
  <path
     d="m 203.61041,25.9 h -135 v -8 c 0,-1.1 0.9,-2 2,-2 h 131 c 1.1,0 2,0.9 2,2 z"
     fill="url(#h)"
     id="path24"
     style="fill:url(#h)" />
  <path
     d="m 193.81141,98.1 h -116.3 c -2.4,0 -4.3,-1.9 -4.3,-4.3 V 34.4 c 0,-2.4 1.9,-4.3 4.3,-4.3 h 116.3 c 2.4,0 4.3,1.9 4.3,4.3 v 59.4 c 0.1,2.4 -1.9,4.3 -4.3,4.3 z"
     fill="#ffffff"
     id="path26" />
  <path
     d="m 194.21041,29.9 h -3 v 1 h 3 z m -7,0 h -3 v 1 h 3 z m -7,0 h -3 v 1 h 3 z m -7,0 h -3 v 1 h 3 z m -7,0 h -3 v 1 h 3 z m -7,0 h -3 v 1 h 3 z m -7,0 h -3 v 1 h 3 z m -7,0 h -3 v 1 h 3 z m -7,0 h -3 v 1 h 3 z m -7,0 h -3 v 1 h 3 z m -7,0 h -3 v 1 h 3 z m -7,0 h -3 v 1 h 3 z m -7,0 h -3 v 1 h 3 z m -7,0 h -3 v 1 h 3 z m -7,0 h -3 v 1 h 3 z m -7,0 h -3 v 1 h 3 z m -7,0 h -3 v 1 h 3 z m -6.8,0.8 c -0.8,0.6 -1.4,1.4 -1.7,2.4 l 1,0.3 c 0.2,-0.7 0.7,-1.4 1.3,-1.8 z m -0.8,6.4 h -1 v 3 h 1 z m 0,7 h -1 v 3 h 1 z m 0,7 h -1 v 3 h 1 z m 0,7 h -1 v 3 h 1 z m 0,7 h -1 v 3 h 1 z m 0,7 h -1 v 3 h 1 z m 0,7 h -1 v 3 h 1 z m 0,7 h -1 v 3 h 1 z m 0,7 h -1 v 0.5 c 0.1,0.7 0.3,1.3 0.7,1.8 l 0.8,-0.5 c -0.3,-0.5 -0.5,-1.2 -0.5,-1.8 z m 3,3.8 -0.1,1 h 2.9 v -1 z m 10,0 h -3 v 1 h 3 z m 7,0 h -3 v 1 h 3 z m 7,0 h -3 v 1 h 3 z m 7,0 h -3 v 1 h 3 z m 7,0 h -3 v 1 h 3 z m 7,0 h -3 v 1 h 3 z m 7,0 h -3 v 1 h 3 z m 7,0 h -3 v 1 h 3 z m 7,0 h -3 v 1 h 3 z m 7,0 h -3 v 1 h 3 z m 7,0 h -3 v 1 h 3 z m 7,0 h -3 v 1 h 3 z m 7,0 h -3 v 1 h 3 z m 7,0 h -3 v 1 h 3 z m 7,0 h -3 v 1 h 3 z m 7,0 h -3 v 1 h 3 z m 4.8,-2.2 c -0.3,0.7 -0.8,1.4 -1.4,1.8 l 0.5,0.9 c 0.2,-0.1 0.4,-0.2 0.5,-0.4 0,-0.1 0.1,-0.2 0.1,-0.3 z m 1.2,-6.7 h -1 v 3 h 1 z m 0,-7 h -1 v 3 h 1 z m 0,-7 h -1 v 3 h 1 z m 0,-7 h -1 v 3 h 1 z m 0,-7 h -1 v 3 h 1 z m 0,-7 h -1 v 3 h 1 z m 0,-7 h -1 v 3 h 1 z m 0,-7 h -1 v 3 h 1 z m -0.6,-6.9 -0.9,0.5 c 0.3,0.5 0.4,1 0.4,1.6 V 35 h 1 v -0.8 l -0.5,-2.1 c 0.1,0.1 0.1,0.1 0,0 0.1,0.1 0.1,0.1 0,0 0.1,0.1 0.1,0.1 0,0 0.1,0.1 0.1,0.1 0,0 0.1,0.1 0.1,0.1 0,0 0.1,0.1 0.1,0.1 0,0 0.1,0.1 0.1,0.1 0,0 0,0.1 0,0.1 0,0 0,0.1 0,0.1 0,0 0,0.1 0,0.1 0,0 0,0.1 0,0.1 0,0 0,0.1 0,0.1 0,0 0,0.1 0,0.1 0,0 0,0.1 0,0.1 0,0 0,0.1 0,0.1 0,0 z m -3.8,-2.2 v 1 h 0.5 l 0.1,-1 z"
     fill="url(#i)"
     id="path28"
     style="fill:url(#i)" />
  <path
     d="m 148.61041,103.9 h -24 v 11 h 24 z"
     fill="url(#j)"
     id="path30"
     style="fill:url(#j)" />
  <path
     d="m 150.61041,114.9 h -28 v 2 h 28 z"
     fill="url(#k)"
     id="path32"
     style="fill:url(#k)" />
  <path
     d="m 153.41041,86.8 h -30.4 a 3.37,3.37 0 0 1 -3.4,-3.4 V 42.8 h 28.7 l 8.5,8.9 v 31.7 a 3.44,3.44 0 0 1 -3.4,3.4 z"
     fill="url(#l)"
     opacity="0.7"
     id="path34"
     style="fill:url(#l)" />
  <path
     d="m 142.41141,41 h -23.7 a 3.37,3.37 0 0 0 -3.4,3.4 v 35.5 a 3.37,3.37 0 0 0 3.4,3.4 h 30.4 a 3.37,3.37 0 0 0 3.4,-3.4 V 51.2 Z"
     fill="url(#m)"
     id="path36"
     style="fill:url(#m)" />
  <path
     d="m 144.11141,51.2 h 8.5 l -10.1,-10.1 v 8.5 c -0.1,0.8 0.6,1.6 1.6,1.6 z"
     fill="#d32630"
     id="path38" />
  <path
     d="m 173.61041,22.9 h -98 c -1.1,0 -2,-0.9 -2,-2 0,-1.1 0.9,-2 2,-2 h 98 c 1.1,0 2,0.9 2,2 0,1.1 -0.9,2 -2,2 z"
     fill="url(#n)"
     id="path40"
     style="fill:url(#n)" />
  <g
     fill="url(#o)"
     id="g48"
     style="fill:url(#o)"
     transform="translate(-4.7895904,-2.9)">
    <use
       xlink:href="#p"
       id="use42"
       style="fill:url(#linearGradient255)" />
    <use
       x="7"
       xlink:href="#p"
       id="use44"
       style="fill:url(#linearGradient257)" />
    <use
       x="14"
       xlink:href="#p"
       id="use46"
       style="fill:url(#linearGradient259)" />
  </g>
  <path
     d="m 217.51041,5.4 h -72.1 V 4.1 c 0,-2.2 1.8,-4 4,-4 h 64 c 2.2,0 4,1.8 4,4 z"
     fill="#e8eef4"
     id="path50" />
  <path
     d="m 52.61041,40.8 a 1,1 0 1 0 0,-2 1,1 0 1 0 0,2 z"
     fill="url(#q)"
     id="path52"
     style="fill:url(#q)" />
  <path
     d="m 55.61041,40.8 a 1,1 0 1 0 0,-2 1,1 0 1 0 0,2 z"
     fill="url(#r)"
     id="path54"
     style="fill:url(#r)" />
  <path
     d="m 178.81041,50.8 h -2 v -3.7 c 0,-1.1 -0.5,-2.2 -1.3,-3 -0.8,-0.8 -1.9,-1.2 -3,-1.2 -2.3,0.1 -4.1,2 -4.1,4.4 v 3.5 h -2 v -3.5 c 0,-3.5 2.7,-6.3 6,-6.4 1.7,0 3.3,0.6 4.5,1.8 1.2,1.2 1.9,2.8 1.9,4.4 z"
     fill="url(#s)"
     id="path56"
     style="fill:url(#s)" />
  <path
     d="m 182.61041,66.1 h -19.9 V 52.9 c 0,-1.1 0.9,-2.1 2.1,-2.1 h 15.8 c 1.1,0 2.1,0.9 2.1,2.1 z"
     fill="url(#t)"
     id="path58"
     style="fill:url(#t)" />
  <g
     fill="#ffffff"
     id="g64"
     transform="translate(-4.7895904,-2.9)">
    <path
       d="m 177.4,61.8 a 1.6,1.6 0 1 0 0,-3.2 1.6,1.6 0 1 0 0,3.2 z"
       id="path60" />
    <path
       d="m 178.1,60.3 h -1.3 v 4.8 h 1.3 z"
       id="path62" />
  </g>
  <path
     d="m 56.81141,30.9 a 0.94,0.94 0 0 1 -1,-1 V 14.8 a 10.97,10.97 0 0 1 11,-11 h 67.1 a 0.94,0.94 0 0 1 1,1 0.94,0.94 0 0 1 -1,1 h -67.1 a 8.96,8.96 0 0 0 -9,9 v 15.1 a 1.08,1.08 0 0 1 -1,1 z"
     fill="url(#u)"
     id="path66"
     style="fill:url(#u)" />
  <path
     d="m 206.51141,115.9 h -22 a 1,1 0 1 1 0,-2 h 22 a 8.96,8.96 0 0 0 9,-9 V 62 a 1,1 0 1 1 2,0 v 42.9 a 10.97,10.97 0 0 1 -11,11 z"
     fill="url(#v)"
     id="path68"
     style="fill:url(#v)" />
  <path
     d="m 96.71141,115.9 h -29.9 a 10.97,10.97 0 0 1 -11,-11 V 89.3 a 0.94,0.94 0 0 1 1,-1 0.94,0.94 0 0 1 1,1 v 15.6 a 8.96,8.96 0 0 0 9,9 h 29.9 a 0.94,0.94 0 0 1 1,1 c 0,0.6 -0.5,1 -1,1 z"
     fill="url(#w)"
     id="path70"
     style="fill:url(#w)" />
  <path
     d="m 125.41041,58.7 h 5.5 v 1.2 h -4.1 V 62 h 4 v 1.2 h -4 v 3.5 h -1.4 z m 6.6,0.5 c 0,-0.4 0.4,-0.8 0.8,-0.8 0.4,0 0.8,0.3 0.8,0.8 0,0.5 -0.3,0.8 -0.8,0.8 -0.5,-0.1 -0.8,-0.4 -0.8,-0.8 z m 0.1,1.7 h 1.3 v 5.8 h -1.3 z m 2.9,-2.2 h 1.3 v 8 h -1.3 z m 5.5,2.1 c 1.7,0 2.9,1.3 2.9,3.2 v 0.3 h -4.5 c 0.1,0.9 0.8,1.6 1.8,1.6 0.6,0 1.2,-0.2 1.6,-0.6 l 0.6,0.8 c -0.6,0.6 -1.4,0.8 -2.4,0.8 -1.7,0 -3,-1.2 -3,-3 0,-1.8 1.3,-3.1 3,-3.1 z m -1.7,2.5 h 3.3 c 0,-0.7 -0.5,-1.5 -1.6,-1.5 -1.1,0 -1.6,0.8 -1.7,1.5 z"
     fill="#ffffff"
     id="path72" />
  <path
     d="m 56.81141,37.6 h 10.8 v 42.7 h -10.8 z"
     fill="url(#x)"
     opacity="0.7"
     id="path74"
     style="fill:url(#x)" />
  <path
     d="m 133.91141,7.4 a 2.6,2.6 0 1 0 0,-5.2 2.6,2.6 0 1 0 0,5.2 z m -77.101,84.5 a 2.6,2.6 0 1 0 0,-5.2 2.6,2.6 0 1 0 0,5.2 z m 127.801,25.6 a 2.6,2.6 0 1 0 0,-5.2 2.6,2.6 0 1 0 0,5.2 z"
     fill="#94d4f8"
     id="path76" />
  <defs
     id="defs249">
    <linearGradient
       id="a"
       x1="4.7610002"
       x2="275.23901"
       y1="111.855"
       y2="111.855"
       xlink:href="#y"
       gradientTransform="translate(-4.7895904,-2.9)">
      <stop
         stop-color="#bfd0e9"
         stop-opacity=".6"
         id="stop78" />
      <stop
         offset="1"
         stop-color="#859cd6"
         stop-opacity=".3"
         id="stop80" />
    </linearGradient>
    <linearGradient
       id="b"
       x1="53.243"
       x2="112.953"
       y1="61.880001"
       y2="61.880001"
       xlink:href="#y"
       gradientTransform="translate(-4.7895904,-2.9)">
      <stop
         stop-color="#fafcfd"
         id="stop83" />
      <stop
         offset="1"
         stop-color="#f9fbfd"
         id="stop85" />
    </linearGradient>
    <linearGradient
       id="c"
       x1="150.871"
       x2="221.84399"
       y1="28.794001"
       y2="28.794001"
       xlink:href="#y"
       gradientTransform="translate(-4.7895904,-2.9)">
      <stop
         stop-color="#fbfcfd"
         id="stop88" />
      <stop
         offset="1"
         stop-color="#f1f5fa"
         id="stop90" />
    </linearGradient>
    <linearGradient
       id="d"
       x1="183.05299"
       x2="183.05299"
       y1="54.074001"
       y2="10.557"
       xlink:href="#y"
       gradientTransform="translate(-4.7895904,-2.9)">
      <stop
         stop-color="#919fb9"
         stop-opacity=".2"
         id="stop93" />
      <stop
         offset=".191"
         stop-color="#95a3bc"
         stop-opacity=".162"
         id="stop95" />
      <stop
         offset=".392"
         stop-color="#a2aec4"
         stop-opacity=".122"
         id="stop97" />
      <stop
         offset=".597"
         stop-color="#b7c0d1"
         stop-opacity=".081"
         id="stop99" />
      <stop
         offset=".803"
         stop-color="#d4dae4"
         stop-opacity=".039"
         id="stop101" />
      <stop
         offset="1"
         stop-color="#f7f9fb"
         stop-opacity="0"
         id="stop103" />
    </linearGradient>
    <linearGradient
       id="x"
       x1="72.358002"
       x2="61.598"
       y1="61.851002"
       y2="61.851002"
       xlink:href="#y"
       gradientTransform="translate(-4.7895904,-2.9)">
      <stop
         stop-color="#919fb9"
         stop-opacity=".1"
         id="stop106" />
      <stop
         offset=".191"
         stop-color="#95a3bc"
         stop-opacity=".081"
         id="stop108" />
      <stop
         offset=".392"
         stop-color="#a2aec4"
         stop-opacity=".061"
         id="stop110" />
      <stop
         offset=".597"
         stop-color="#b7c0d1"
         stop-opacity=".04"
         id="stop112" />
      <stop
         offset=".803"
         stop-color="#d4dae4"
         stop-opacity=".02"
         id="stop114" />
      <stop
         offset="1"
         stop-color="#f7f9fb"
         stop-opacity="0"
         id="stop116" />
    </linearGradient>
    <linearGradient
       id="f"
       x1="155.229"
       x2="126.695"
       y1="101.781"
       y2="23.384001"
       xlink:href="#y"
       gradientTransform="translate(-4.7895904,-2.9)">
      <stop
         stop-color="#d8e0ea"
         id="stop119" />
      <stop
         offset=".475"
         stop-color="#e2e9f1"
         id="stop121" />
      <stop
         offset="1"
         stop-color="#e8eef4"
         id="stop123" />
    </linearGradient>
    <linearGradient
       id="g"
       x1="140.858"
       x2="140.858"
       y1="90.678001"
       y2="34.325001"
       xlink:href="#y"
       gradientTransform="translate(-4.7895904,-2.9)">
      <stop
         stop-color="#f7f8fb"
         id="stop126" />
      <stop
         offset="1"
         stop-color="#e2eaf3"
         id="stop128" />
    </linearGradient>
    <linearGradient
       id="h"
       x1="73.358002"
       x2="208.358"
       y1="23.794001"
       y2="23.794001"
       xlink:href="#y"
       gradientTransform="translate(-4.7895904,-2.9)">
      <stop
         offset=".001"
         stop-color="#edf3f7"
         id="stop131" />
      <stop
         offset="1"
         stop-color="#edf2f7"
         id="stop133" />
    </linearGradient>
    <linearGradient
       id="i"
       x1="201.118"
       x2="80.657997"
       y1="101.515"
       y2="31.968"
       xlink:href="#y"
       gradientTransform="translate(-4.7895904,-2.9)">
      <stop
         stop-color="#e3eaf1"
         id="stop136" />
      <stop
         offset="1"
         stop-color="#d9e2ed"
         id="stop138" />
    </linearGradient>
    <linearGradient
       id="j"
       x1="141.358"
       x2="141.358"
       y1="117.794"
       y2="106.794"
       xlink:href="#y"
       gradientTransform="translate(-4.7895904,-2.9)">
      <stop
         stop-color="#e9f0fa"
         id="stop141" />
      <stop
         offset=".4"
         stop-color="#e4ebf4"
         id="stop143" />
      <stop
         offset=".911"
         stop-color="#d6dee5"
         id="stop145" />
      <stop
         offset="1"
         stop-color="#d3dbe1"
         id="stop147" />
    </linearGradient>
    <linearGradient
       id="k"
       x1="127.358"
       x2="155.358"
       y1="118.794"
       y2="118.794"
       xlink:href="#y"
       gradientTransform="translate(-4.7895904,-2.9)">
      <stop
         stop-color="#e9f4fa"
         id="stop150" />
      <stop
         offset=".458"
         stop-color="#e5eff4"
         id="stop152" />
      <stop
         offset="1"
         stop-color="#dce2e6"
         id="stop154" />
    </linearGradient>
    <linearGradient
       id="w"
       x1="60.598"
       x2="102.454"
       y1="104.995"
       y2="104.995"
       xlink:href="#y"
       gradientTransform="translate(-4.7895904,-2.9)">
      <stop
         stop-color="#98d9ff"
         id="stop157" />
      <stop
         offset=".2"
         stop-color="#9cdbff"
         stop-opacity=".88"
         id="stop159" />
      <stop
         offset=".408"
         stop-color="#a9e0ff"
         stop-opacity=".756"
         id="stop161" />
      <stop
         offset=".618"
         stop-color="#bde8ff"
         stop-opacity=".629"
         id="stop163" />
      <stop
         offset=".83"
         stop-color="#daf3ff"
         stop-opacity=".502"
         id="stop165" />
      <stop
         offset="1"
         stop-color="#f7ffff"
         stop-opacity=".4"
         id="stop167" />
    </linearGradient>
    <linearGradient
       id="m"
       x1="119.826"
       x2="153.507"
       y1="83.949997"
       y2="50.269001"
       xlink:href="#y"
       gradientTransform="translate(-4.7895904,-2.9)">
      <stop
         offset=".002"
         stop-color="#ff7240"
         id="stop170" />
      <stop
         offset="1"
         stop-color="#fe4c49"
         id="stop172" />
    </linearGradient>
    <linearGradient
       id="n"
       x1="78.358002"
       x2="180.358"
       y1="23.794001"
       y2="23.794001"
       xlink:href="#y"
       gradientTransform="translate(-4.7895904,-2.9)">
      <stop
         stop-color="#fff"
         id="stop175" />
    </linearGradient>
    <linearGradient
       id="o"
       x1="187.358"
       x2="187.358"
       y1="25.794001"
       y2="21.794001"
       xlink:href="#y">
      <stop
         stop-color="#dae3ee"
         id="stop178" />
      <stop
         offset="1"
         stop-color="#d8e1ea"
         id="stop180" />
    </linearGradient>
    <linearGradient
       id="q"
       x1="56.448002"
       x2="58.448002"
       y1="42.727001"
       y2="42.727001"
       xlink:href="#y"
       gradientTransform="translate(-4.7895904,-2.9)">
      <stop
         stop-color="#fff"
         id="stop183" />
      <stop
         offset="1"
         stop-color="#fbfdfd"
         id="stop185" />
    </linearGradient>
    <linearGradient
       id="r"
       x1="59.448002"
       x2="61.448002"
       y1="42.727001"
       y2="42.727001"
       xlink:href="#y"
       gradientTransform="translate(-4.7895904,-2.9)">
      <stop
         stop-color="#fff"
         id="stop188" />
      <stop
         offset="1"
         stop-color="#fbfdfd"
         id="stop190" />
    </linearGradient>
    <linearGradient
       id="s"
       x1="177.39799"
       x2="177.39799"
       y1="53.736"
       y2="43.805"
       xlink:href="#y"
       gradientTransform="translate(-4.7895904,-2.9)">
      <stop
         stop-color="#d4dce7"
         id="stop193" />
      <stop
         offset="1"
         stop-color="#b6c4d5"
         id="stop195" />
    </linearGradient>
    <linearGradient
       id="t"
       x1="177.397"
       x2="177.397"
       y1="69.018997"
       y2="53.736"
       xlink:href="#y"
       gradientTransform="translate(-4.7895904,-2.9)">
      <stop
         stop-color="#ffcb5d"
         id="stop198" />
      <stop
         offset="1"
         stop-color="#ffa961"
         id="stop200" />
    </linearGradient>
    <linearGradient
       id="u"
       x1="60.598"
       x2="139.70799"
       y1="20.247999"
       y2="20.247999"
       xlink:href="#y"
       gradientTransform="translate(-4.7895904,-2.9)">
      <stop
         stop-color="#f7ffff"
         stop-opacity=".4"
         id="stop203" />
      <stop
         offset=".17"
         stop-color="#daf3ff"
         stop-opacity=".502"
         id="stop205" />
      <stop
         offset=".382"
         stop-color="#bde8ff"
         stop-opacity=".629"
         id="stop207" />
      <stop
         offset=".593"
         stop-color="#a9e0ff"
         stop-opacity=".756"
         id="stop209" />
      <stop
         offset=".8"
         stop-color="#9cdbff"
         stop-opacity=".88"
         id="stop211" />
      <stop
         offset="1"
         stop-color="#98d9ff"
         id="stop213" />
    </linearGradient>
    <linearGradient
       id="v"
       x1="183.172"
       x2="230.30901"
       y1="103.724"
       y2="86.567001"
       xlink:href="#y"
       gradientTransform="translate(-4.7895904,-2.9)">
      <stop
         stop-color="#98d9ff"
         id="stop216" />
      <stop
         offset=".2"
         stop-color="#9cdbff"
         stop-opacity=".88"
         id="stop218" />
      <stop
         offset=".408"
         stop-color="#a9e0ff"
         stop-opacity=".756"
         id="stop220" />
      <stop
         offset=".618"
         stop-color="#bde8ff"
         stop-opacity=".629"
         id="stop222" />
      <stop
         offset=".83"
         stop-color="#daf3ff"
         stop-opacity=".502"
         id="stop224" />
      <stop
         offset="1"
         stop-color="#f7ffff"
         stop-opacity=".4"
         id="stop226" />
    </linearGradient>
    <linearGradient
       id="y"
       gradientUnits="userSpaceOnUse" />
    <radialGradient
       id="l"
       cx="0"
       cy="0"
       r="1"
       gradientTransform="matrix(21.534,0,0,21.8355,141.23641,69.586)"
       xlink:href="#y">
      <stop
         stop-color="#3a68a2"
         stop-opacity=".7"
         id="stop230" />
      <stop
         offset=".042"
         stop-color="#3a68a0"
         stop-opacity=".679"
         id="stop232" />
      <stop
         offset=".579"
         stop-color="#3c6891"
         stop-opacity=".41"
         id="stop234" />
      <stop
         offset="1"
         stop-color="#3c688b"
         stop-opacity=".2"
         id="stop236" />
    </radialGradient>
    <radialGradient
       id="e"
       cx="0"
       cy="0"
       r="1"
       gradientTransform="matrix(94.5949,0,0,9.03753,137.24041,115.931)"
       xlink:href="#y">
      <stop
         stop-color="#919fb9"
         id="stop239" />
      <stop
         offset=".198"
         stop-color="#9facc2"
         stop-opacity=".802"
         id="stop241" />
      <stop
         offset=".575"
         stop-color="#c5cddb"
         stop-opacity=".425"
         id="stop243" />
      <stop
         offset="1"
         stop-color="#f7f9fb"
         stop-opacity="0"
         id="stop245" />
    </radialGradient>
    <path
       d="m 187.4,25.8 c -1.1,0 -2,-0.9 -2,-2 0,-1.1 0.9,-2 2,-2 1.1,0 2,0.9 2,2 0,1.1 -0.9,2 -2,2 z"
       id="p" />
    <linearGradient
       inkscape:collect="always"
       xlink:href="#o"
       id="linearGradient255"
       x1="187.358"
       y1="25.794001"
       x2="187.358"
       y2="21.794001" />
    <linearGradient
       inkscape:collect="always"
       xlink:href="#o"
       id="linearGradient257"
       x1="187.358"
       y1="25.794001"
       x2="187.358"
       y2="21.794001" />
    <linearGradient
       inkscape:collect="always"
       xlink:href="#o"
       id="linearGradient259"
       x1="187.358"
       y1="25.794001"
       x2="187.358"
       y2="21.794001" />
  </defs>
</svg>
