<svg width="116" height="59" fill="none" xmlns="http://www.w3.org/2000/svg"><rect x="37.334" y="1.138" width="37.236" height="25.072" rx=".25" fill="url(#paint0_linear_418_435)" stroke="#E8EEF4" stroke-width=".5"/><path fill="url(#paint1_linear_418_435)" d="M35.006 26.464H76.55v1.752H35.006z"/><rect x=".259" y=".241" width="7.269" height="14.151" rx=".25" transform="rotate(-2.11 391.693 -2680.294) skewX(-.049)" fill="url(#paint2_linear_418_435)" stroke="#E8EEF4" stroke-width=".5"/><path d="M110.656 24.812c0 1.489-.436 3.925 0 9.213l-3.276.271c-.493-1.317-1.94-3.47-2.377-4.882-.438-1.412-1.472-3.79-1.606-4.602-.133-.812 1.338-.542 1.338-.542l2.398 2.228c0-1.624-.173-4.638-.173-5.955 0 0 3.696 2.78 3.696 4.269z" fill="url(#paint3_linear_418_435)"/><path d="M54.762 36.79v4.199h5.266c-.439-3.623-1.07-5.075.773-7.177 1.842-2.102.818-1.837 2.423-3.503 1.88-1.952 1.404-1.35 2.597-2.102h-3.21c-1.682.757-2.413 1.48-3.022 1.204-.608-.277-1.133-1.204-1.133-1.204h-8.214s.52.853 1.385 1.751c.865.899 1.16 2.09 1.73 2.978.447.692 1.405 1.585 1.405 3.853z" fill="url(#paint4_linear_418_435)"/><path d="M96.27 31.178c-1.033 2.717-1.354 6.197-1.64 7.849l-3.822-.453c.819-4.508.421-4.076.49-5.124.07-1.049-.713-2.33-1.519-3.263-.806-.932.689.22 1.03-.473l1.24-4.99c.77-.951 2.806-5.252 3.742-1.503.936 3.75 1.514 5.24.48 7.957z" fill="url(#paint5_linear_418_435)"/><path d="M87.389 52.026l7.077 1.532.086-7.542c.214-3.146.826-5.737.827-6.264.001-1.01-6.047-2.383-5.892-1.1.156 1.28-.057 2.08-.404 6.116-.431 5.024-1.694 7.258-1.694 7.258z" fill="url(#paint6_linear_418_435)"/><path d="M108.171 54.698c.249 6.484 6.751 4.028 6.232-2.102-.52-6.13-2.875-16.018-2.875-18.82 0-2.803-4.461-.793-5.434 0-.501.408.617 2.112 1.555 8.024.881 5.558.273 6.414.522 12.898z" fill="url(#paint7_linear_418_435)"/><path d="M61.734 54.848H53.61s.707-12.185.707-13.937c0-1.751 7.416-1.226 6.71 0-.707 1.227.706 13.937.706 13.937z" fill="url(#paint8_linear_418_435)"/><path fill-rule="evenodd" clip-rule="evenodd" d="M52.537 14.624c.049-.1.049-.25.097-.35.049-.248.049-.497.049-.746 0-.499-.049-.997-.195-1.445-.098-.15-.146-.299-.195-.448a2.098 2.098 0 00-.44-.698c-.195-.249-.439-.946-.878-.747-.146.05-.243.25-.341.349l-.293.448c-.048.05-.097.15-.048.2 0 .05.048.05.097.05.098.049.147.049.244.099.049 0 .098.05.049.1 0 0 0 .05-.049.05-.244.248-.488.447-.732.697a.381.381 0 00-.097.199c0 .05.049.05.049.1s-.049.05-.098.1a1.046 1.046 0 00-.244.149c-.049.1 0 .249-.049.348-.049.25-.195.448-.293.698-.097.15-.146.298-.243.448 0 .2-.049.349.048.498.244.349.684.15 1.025.299.097.05.195.05.244.15.146.149.146.398.195.547.049.2.098.399.195.598.049.249.147.498.195.698.439-.35.83-.747 1.122-1.246.293-.349.439-.747.586-1.145zm-4.098-3.487c.049 0 .098-.05.195-.1.146-.1.293-.25.439-.349.146-.1.293-.249.39-.348.146-.1.244-.3.293-.449.049-.1.195-.299.146-.448-.048-.1-.293-.15-.39-.2-.39-.1-.732-.149-1.122-.149-.146 0-.342.05-.39.2-.049.249.146.199.341.249 0 0 .05.398.05.448.048.25-.098.398-.098.647 0 .15 0 .4.097.499h.049zm-.098 4.582c0-.1-.048-.149-.146-.199-.293-.1-.585-.1-.83-.348-.048-.1-.048-.2-.097-.3-.097-.1-.341-.149-.488-.199h-.976c-.146-.05-.243-.248-.34-.399 0-.049 0-.149-.098-.149-.098-.05-.196.05-.293 0-.049-.05-.049-.1-.049-.15 0-.149.098-.298.195-.397.147-.1.293.05.44.05.048 0 .048 0 .097.05.146.05.195.248.195.397v.1c0 .05.048.05.098.05.048-.25.048-.498.097-.747 0-.3.293-.598.537-.698.097-.05.146.05.244 0 .292-.1 1.024-.398.878-.797-.098-.348-.39-.697-.781-.647-.097.05-.146.1-.244.15-.146.099-.439.398-.585.398-.244-.05-.244-.399-.196-.548.05-.2.489-.847.781-.747l.195.199c.098.05.244.05.39.05.05 0 .098 0 .147-.05.049-.05.049-.05.049-.1 0-.15-.147-.299-.244-.398-.098-.1-.244-.2-.39-.25-.488-.149-1.269.05-1.66.4-.39.348-.682.946-.877 1.444a6.516 6.516 0 00-.244 1.046c-.049.249-.098.448.049.697.146.3.439.598.732.798.195.149.585.149.78.398.146.199.097.448.097.697 0 .299.195.548.293.797.05.15.098.349.147.498 0 .05.048.35.048.399.293.15.537.299.879.399.048 0 .243-.3.243-.35.147-.149.244-.348.39-.448.098-.05.196-.099.293-.2.098-.099.147-.298.196-.447.048-.1.097-.299.048-.449zm4.781-2.29c0 2.689-2.146 4.831-4.732 4.831-2.585 0-4.732-2.142-4.732-4.832s2.098-4.832 4.732-4.832c2.634 0 4.732 2.142 4.732 4.832z" fill="url(#paint9_linear_418_435)"/><path d="M67.175 8.86l-5.068.69-.04 3.765 5.06.054.048-4.51z" fill="url(#paint10_linear_418_435)"/><path d="M61.646 9.62l-3.825.487-.034 3.194 3.82.041.039-3.722z" fill="url(#paint11_linear_418_435)"/><path d="M57.783 13.694l3.82.04-.04 3.734-3.814-.58.034-3.194z" fill="url(#paint12_linear_418_435)"/><path d="M67.123 13.844l-5.061-.055-.04 3.744 5.054.777.047-4.466z" fill="url(#paint13_linear_418_435)"/><rect x=".272" y=".225" width="23.736" height="16.44" rx=".25" transform="rotate(-5.387 80.67 -76.875) skewX(-.125)" fill="url(#paint14_linear_418_435)" stroke="#E8EEF4" stroke-width=".5"/><rect x="-.263" y=".236" width="24.02" height="17.157" rx=".25" transform="rotate(92.975 44.683 48.478) skewX(-.071)" fill="url(#paint15_linear_418_435)" stroke="#E8EEF4" stroke-width=".5"/><path d="M22.938 11.813l.917-2.083a.237.237 0 00-.106-.308.215.215 0 00-.292.114l-.93 2.11a6.39 6.39 0 00-2.846-.347 6.52 6.52 0 00-2.741.907l-1.266-1.89a.212.212 0 00-.307-.055.24.24 0 00-.053.324l1.25 1.866c-1.78 1.253-2.877 3.369-2.89 5.72l13.061-1.309c-.405-2.308-1.838-4.17-3.797-5.049zm-5.895 4.074a.554.554 0 01-.596-.521c-.026-.32.198-.601.5-.631a.554.554 0 01.595.52.575.575 0 01-.499.632zm5.996-.6a.554.554 0 01-.596-.522c-.026-.318.198-.6.5-.63a.553.553 0 01.595.52.575.575 0 01-.499.631z" fill="url(#paint16_linear_418_435)"/><path d="M89.903 19.87a5.91 5.91 0 01-.663.998c-.339.411-.612.692-.817.844-.319.25-.648.364-.989.343-.243-.02-.531-.116-.862-.288a2.508 2.508 0 00-.93-.293 2.592 2.592 0 00-.993.129c-.359.113-.646.163-.86.152-.327-.014-.64-.186-.939-.519-.191-.2-.424-.536-.697-1.006a6.557 6.557 0 01-.682-1.718 6.136 6.136 0 01-.18-1.995c.06-.725.267-1.339.621-1.837.28-.4.632-.705 1.058-.915.427-.21.877-.297 1.35-.264.26.022.593.132 1 .327.408.196.671.3.79.31.088.008.395-.062.92-.207.496-.134.907-.172 1.237-.115.896.15 1.542.568 1.939 1.254-.847.425-1.303 1.083-1.37 1.971-.05.692.15 1.289.599 1.787.203.23.435.416.7.555-.075.17-.152.332-.232.487zm-1.38-8.404c-.045.542-.283 1.031-.711 1.466-.518.516-1.114.79-1.727.686a1.81 1.81 0 01.006-.206c.043-.52.313-1.058.75-1.48.217-.213.485-.383.804-.51a2.24 2.24 0 01.886-.174 2.16 2.16 0 01-.007.218z" fill="url(#paint17_linear_418_435)"/><path d="M4.827 23.148c.346 3.854 1.384 5.08 1.211 9.108h4.5c.092-1.986.52-3.153 1.905-5.955S14.33 21.969 14 21.22c.346-.35-1.558-.525-1.904 0-.346.526-1.558 2.628-2.424 2.803-.865.175-1.211-8.582-1.211-8.582-1.731-.35-1.693.7-2.078 2.452-.384 1.751-1.904 1.4-1.558 5.254z" fill="#7A6149"/><path d="M9.332 54.545L3.44 52.391S5.523 33.824 5.517 32.6c-.005-1.224 6.37-1.286 5.54.526-.83 1.811-1.725 21.42-1.725 21.42z" fill="url(#paint18_linear_418_435)"/><rect x=".233" y=".267" width="7.27" height="14.15" rx=".25" transform="rotate(3.958 -213.979 420.898) skewX(.092)" fill="url(#paint19_linear_418_435)" stroke="#E8EEF4" stroke-width=".5"/><path d="M31.748 21.682l.16 1.26a.949.949 0 00.58.759l1.164.472-1.242.162a.934.934 0 00-.747.588l-.464 1.18-.16-1.26a.946.946 0 00-.58-.76l-1.163-.471 1.241-.162a.934.934 0 00.747-.588l.464-1.18z" fill="url(#paint20_linear_418_435)"/><path d="M102.709 17.287l.548 1.146c.148.31.45.517.788.54l1.253.083-1.129.543a.934.934 0 00-.525.792l-.07 1.266-.548-1.146a.946.946 0 00-.788-.54l-1.253-.083 1.129-.543a.934.934 0 00.525-.792l.07-1.266z" fill="url(#paint21_linear_418_435)"/><path d="M23.032 26.826c.346 1.226.988 7.094 1.164 8.762l4.238-.357c.353-1.787.646-1.529 1.176-3.852.53-2.322-1.61-3.489-1.904-4.203 0 0 .865-3.853.865-4.904 0-1.051-.173-1.402-.346-2.452-4.327 5.079-5.539 5.78-5.193 7.006z" fill="url(#paint22_linear_418_435)"/><path d="M29.03 54.146h-6.862S23.653 36.07 23.36 33.75c-.291-2.319 7.155-2.277 6.116 0-1.038 2.277-.447 20.396-.447 20.396z" fill="url(#paint23_linear_418_435)"/><defs><linearGradient id="paint0_linear_418_435" x1="48.656" y1=".888" x2="64.707" y2="24.671" gradientUnits="userSpaceOnUse"><stop stop-color="#F4F9FE"/><stop offset="1" stop-color="#E9EEF4"/></linearGradient><linearGradient id="paint1_linear_418_435" x1="47.053" y1="26.594" x2="47.078" y2="28.473" gradientUnits="userSpaceOnUse"><stop stop-color="#F0F4F7"/><stop offset="1" stop-color="#D2DDE8"/></linearGradient><linearGradient id="paint2_linear_418_435" x1=".877" y1="16.241" x2="12.726" y2="10.56" gradientUnits="userSpaceOnUse"><stop stop-color="#F0F5FA"/><stop offset="1" stop-color="#F1F5FA"/></linearGradient><linearGradient id="paint3_linear_418_435" x1="105.939" y1="24.541" x2="113.344" y2="29.065" gradientUnits="userSpaceOnUse"><stop stop-color="#E0C3A8"/><stop offset="1" stop-color="#F0BCAC"/></linearGradient><linearGradient id="paint4_linear_418_435" x1="59.07" y1="48.524" x2="52.348" y2="25.447" gradientUnits="userSpaceOnUse"><stop stop-color="#FFE4DB"/><stop offset="1" stop-color="#D8B2A6"/></linearGradient><linearGradient id="paint5_linear_418_435" x1="93.612" y1="21.895" x2="92.445" y2="39.137" gradientUnits="userSpaceOnUse"><stop stop-color="#897B6E"/><stop offset="1" stop-color="#B7A18E"/></linearGradient><linearGradient id="paint6_linear_418_435" x1="92.158" y1="40.236" x2="90.565" y2="49.278" gradientUnits="userSpaceOnUse"><stop stop-color="#DE9403"/><stop offset="1" stop-color="#DAB700" stop-opacity="0"/></linearGradient><linearGradient id="paint7_linear_418_435" x1="108.239" y1="35.786" x2="111.45" y2="51.294" gradientUnits="userSpaceOnUse"><stop stop-color="#1F7030"/><stop offset=".806" stop-color="#439E57" stop-opacity="0"/></linearGradient><linearGradient id="paint8_linear_418_435" x1="57.34" y1="41.296" x2="57.493" y2="48.691" gradientUnits="userSpaceOnUse"><stop stop-color="#495767"/><stop offset="1" stop-color="#5E6A79" stop-opacity="0"/></linearGradient><linearGradient id="paint9_linear_418_435" x1="48.557" y1="9.509" x2="49.065" y2="18.495" gradientUnits="userSpaceOnUse"><stop stop-color="#DBE5EC"/><stop offset="1" stop-color="#D2DDE8"/></linearGradient><linearGradient id="paint10_linear_418_435" x1="59.485" y1="10.726" x2="64.577" y2="17.24" gradientUnits="userSpaceOnUse"><stop stop-color="#D9E1E8"/><stop offset="1" stop-color="#CDD7E1"/></linearGradient><linearGradient id="paint11_linear_418_435" x1="59.485" y1="10.726" x2="64.577" y2="17.24" gradientUnits="userSpaceOnUse"><stop stop-color="#D9E1E8"/><stop offset="1" stop-color="#CDD7E1"/></linearGradient><linearGradient id="paint12_linear_418_435" x1="59.485" y1="10.726" x2="64.577" y2="17.24" gradientUnits="userSpaceOnUse"><stop stop-color="#D9E1E8"/><stop offset="1" stop-color="#CDD7E1"/></linearGradient><linearGradient id="paint13_linear_418_435" x1="59.485" y1="10.726" x2="64.577" y2="17.24" gradientUnits="userSpaceOnUse"><stop stop-color="#D9E1E8"/><stop offset="1" stop-color="#CDD7E1"/></linearGradient><linearGradient id="paint14_linear_418_435" x1="2.735" y1="18.78" x2="19.742" y2="-3.219" gradientUnits="userSpaceOnUse"><stop stop-color="#F0F5FA"/><stop offset="1" stop-color="#F1F5FA"/></linearGradient><linearGradient id="paint15_linear_418_435" x1="23.035" y1="7.039" x2="3.017" y2="4.095" gradientUnits="userSpaceOnUse"><stop stop-color="#E8EEF4"/><stop offset="1" stop-color="#F9FBFF"/></linearGradient><linearGradient id="paint16_linear_418_435" x1="19.848" y1="10.515" x2="20.799" y2="17.657" gradientUnits="userSpaceOnUse"><stop stop-color="#DBE5EC"/><stop offset="1" stop-color="#D2DDE8"/></linearGradient><linearGradient id="paint17_linear_418_435" x1="85.889" y1="12.274" x2="86.582" y2="22.309" gradientUnits="userSpaceOnUse"><stop stop-color="#DBE5EC"/><stop offset="1" stop-color="#D2DDE8"/></linearGradient><linearGradient id="paint18_linear_418_435" x1="6.729" y1="35.577" x2="7.27" y2="45.921" gradientUnits="userSpaceOnUse"><stop stop-color="#B13737"/><stop offset="1" stop-color="#F39A9A" stop-opacity="0"/></linearGradient><linearGradient id="paint19_linear_418_435" x1=".877" y1="16.241" x2="12.727" y2="10.559" gradientUnits="userSpaceOnUse"><stop stop-color="#F0F5FA"/><stop offset="1" stop-color="#F1F5FA"/></linearGradient><linearGradient id="paint20_linear_418_435" x1="29.302" y1="23.6" x2="33.654" y2="24.14" gradientUnits="userSpaceOnUse"><stop stop-color="#E3E9EE"/><stop offset="1" stop-color="#D2DDE8"/></linearGradient><linearGradient id="paint21_linear_418_435" x1="100.987" y1="19.875" x2="105.29" y2="19.024" gradientUnits="userSpaceOnUse"><stop stop-color="#E3E9EE"/><stop offset="1" stop-color="#D2DDE8"/></linearGradient><linearGradient id="paint22_linear_418_435" x1="26.361" y1="19.82" x2="26.361" y2="35.588" gradientUnits="userSpaceOnUse"><stop stop-color="#D9CABC"/><stop offset="1" stop-color="#C99C73"/></linearGradient><linearGradient id="paint23_linear_418_435" x1="26.495" y1="35.405" x2="26.035" y2="45.824" gradientUnits="userSpaceOnUse"><stop stop-color="#5E9ED9"/><stop offset="1" stop-color="#0071DA" stop-opacity="0"/></linearGradient></defs></svg>